<svg width="40" height="40" viewBox="0 0 40 40" fill="none" xmlns="http://www.w3.org/2000/svg">
<path d="M0 12C0 5.37258 5.37258 0 12 0H28C34.6274 0 40 5.37258 40 12V28C40 34.6274 34.6274 40 28 40H12C5.37258 40 0 34.6274 0 28V12Z" fill="#F3F4F5"/>
<path d="M26 26L23.1067 23.1067" stroke="curentColor" stroke-width="1.33333" stroke-linecap="round" stroke-linejoin="round"/>
<path d="M19.3333 24.6667C22.2789 24.6667 24.6667 22.2789 24.6667 19.3333C24.6667 16.3878 22.2789 14 19.3333 14C16.3878 14 14 16.3878 14 19.3333C14 22.2789 16.3878 24.6667 19.3333 24.6667Z" stroke="#08090A" stroke-width="1.33333" stroke-linecap="round" stroke-linejoin="round"/>
</svg>
