<svg width="14" height="14" viewBox="0 0 14 14" fill="none" xmlns="http://www.w3.org/2000/svg">
<path d="M7 7.58329V1.16663L11.6667 3.49996L7 5.83329" stroke="white" stroke-width="1.16667" stroke-linecap="round" stroke-linejoin="round"/>
<path d="M11.9937 5.96279C12.3042 6.91953 12.3332 7.94532 12.0774 8.9181C11.8216 9.89088 11.2918 10.7697 10.5509 11.45C9.81002 12.1303 8.8893 12.5835 7.89829 12.7556C6.90727 12.9277 5.88768 12.8115 4.96081 12.4208C4.03393 12.0301 3.2388 11.3814 2.67001 10.5518C2.10122 9.72223 1.78272 8.74672 1.75239 7.74133C1.72206 6.73594 1.98118 5.743 2.49893 4.88064C3.01668 4.01828 3.77126 3.3228 4.6729 2.87695" stroke="white" stroke-width="1.16667" stroke-linecap="round" stroke-linejoin="round"/>
<path d="M3.58472 8C3.29242 8.3891 3.10212 8.84515 3.03117 9.32661C2.96021 9.80807 3.01086 10.2996 3.17849 10.7565C3.34612 11.2134 3.62541 11.6211 3.99092 11.9424C4.35642 12.2637 4.79651 12.4885 5.2711 12.5962C5.74569 12.7039 6.23969 12.6911 6.70809 12.5591C7.1765 12.427 7.60441 12.1799 7.95285 11.8401C8.30129 11.5004 8.55918 11.0788 8.70302 10.6139C8.84686 10.149 8.87209 9.65549 8.77639 9.17833" stroke="white" stroke-width="1.16667" stroke-linecap="round" stroke-linejoin="round"/>
</svg>
